<svg id="Layer_1" data-name="Layer 1" xmlns="http://www.w3.org/2000/svg" viewBox="0 0 1200 1200"><defs><style>.cls-1{fill:#e9e8e8;}.cls-2{fill:#9dd5c0;}.cls-3{fill:#1d252e;}.cls-4{fill:none;stroke:#1d252e;stroke-miterlimit:10;stroke-width:2px;}</style></defs><path class="cls-1" d="M1047.59,710.37c-22.25,124-306.19,182-389.61,181.33-28.25-.21-65,.53-105.67.21-114.73-.92-264-35.83-343.9-98.49-25.83-20.26-44.67-46.1-53.17-79C141.93,662.78,166.83,588.73,216,517.94,289.27,412.55,416.39,314.39,551.56,308.3c74.88-3.37,152.23,21.53,224.26,89.12C884.53,499.43,1061,635.74,1047.59,710.37Z"/><polygon class="cls-2" points="682.59 233.43 685.62 232.35 686.49 282.72 689.76 282.07 691.07 324.38 693.47 324.38 693.69 339.21 694.42 339.21 695.36 407.42 700.55 408.43 701.42 469.17 702.71 469.31 704.3 575.5 707.19 575.5 708.34 662.49 710.94 662.2 712.38 732.03 714.98 732.03 714.98 781.22 648.42 781.22 650.34 715.82 656.5 715.05 656.5 638.49 661.5 638.49 661.5 545.01 668.81 545.01 668.81 425.74 674.97 425.36 674.97 381.12 676.02 381.12 676.02 352.45 679.63 352.45 679.63 296.77 681.65 294.02 681.65 254.93 682.59 254.93 682.59 233.43"/><line class="cls-2" x1="684.49" y1="202.57" x2="684.83" y2="260.21"/><polygon class="cls-2" points="685.83 260.21 683.83 260.22 683.7 233.03 683.56 202.58 685.41 202.56 685.63 232.3 685.83 260.21"/><path class="cls-2" d="M1106.87,796.27v24.64H98.21l5.08-118.21,53.62-.89V690.19h17l3.58,74.17h7.15l8-59L207.84,700l.9-50,92-6.26v17L324,670.53v42.9h49.15V651.77h10.73v-8.94h13.4v10.72h4.41V727.6h7.93V598H459v55.53h3.52s1.76-36.14,27.32-36.14v-6.61h8.37V582.18h24.24v8.37h8.81V651.8h6.61l5.73,12.78V600.24h4.85V572h1.41v-15.5l2.74-9.81h3v-6.84h24v5.7H582v9.58h2.74v45.62h6.38v46.53H601.4V661h5v-78.7h7.3v-10h25.77V596h6.39l3.42,6.62V746.78h58.17v20.53l4.56.45.23-12.32A37.71,37.71,0,0,1,728,751.57V671.5h16.88v-7.07h36.26v73.91H809v40.83h15.29V700.7h27.6v18.93s16.42,2,17.56,10V685.19l9.88-1.11V670.49l9.69-1v-3.67h10v3.67l10.55,11.23,8.51-1,2.5-5.93,6.39-.45v6.61h3v-2.05l14.82-2v4.1l5.25-1.14V601.25h17.79v52.69h2v25.55H973V754.3h30.11v6.39H1007v15.17Z"/><polygon class="cls-3" points="84.71 799.56 1119.53 799.56 1125.88 829.19 74.13 829.19 84.71 799.56"/><polygon class="cls-3" points="97.71 730.24 123.18 730.24 131.84 738.9 179.2 738.9 179.2 750.61 216.88 750.61 216.88 740.42 245.4 740.42 245.4 758.76 328.92 758.76 328.92 745.52 383.93 745.52 383.93 791.35 459.3 791.35 459.3 798.48 490.87 798.48 537.73 798.48 537.73 738.39 585.6 738.39 585.6 799.5 621.25 799.5 634.49 791.35 665.04 791.35 677.27 785.24 704.77 785.24 704.77 734.31 731.25 734.31 731.25 793.39 746.53 793.39 746.53 730.24 787.27 730.24 787.27 741.44 816.81 741.44 816.81 779.13 893.2 779.13 893.2 788.3 1021.54 788.3 1021.54 749.59 1080.61 749.59 1080.61 821.91 93.64 821.91 97.71 730.24"/><line class="cls-4" x1="409.94" y1="733.41" x2="409.94" y2="797.23"/><line class="cls-4" x1="457.8" y1="660.16" x2="457.8" y2="803.03"/><line class="cls-4" x1="537.58" y1="670.32" x2="537.58" y2="808.11"/><polyline class="cls-4" points="650.34 792.88 650.34 715.82 656.5 715.82 656.5 638.49"/><line class="cls-4" x1="710.94" y1="662.2" x2="710.94" y2="737.4"/><polyline class="cls-4" points="176.49 714.18 176.76 772.5 190.84 757.71 192.65 705.38"/><line class="cls-4" x1="244.08" y1="728.34" x2="244.08" y2="763.22"/><line class="cls-4" x1="323.02" y1="725.89" x2="323.02" y2="773.01"/><line class="cls-4" x1="373.2" y1="722.83" x2="373.2" y2="748.53"/><line class="cls-4" x1="891.73" y1="749.23" x2="891.73" y2="794.45"/><line class="cls-4" x1="973.28" y1="762.96" x2="973.28" y2="796.87"/><line class="cls-4" x1="869.92" y1="739.54" x2="869.92" y2="788.8"/><line class="cls-4" x1="688.05" y1="355.65" x2="691.43" y2="355.65"/><line class="cls-4" x1="671.84" y1="432.16" x2="679.19" y2="432.16"/><line class="cls-4" x1="664.91" y1="552.03" x2="672.25" y2="552.03"/><line class="cls-4" x1="664.91" y1="590.67" x2="669.28" y2="590.67"/><line class="cls-4" x1="664.91" y1="594.63" x2="675.22" y2="594.63"/><line class="cls-4" x1="671.84" y1="438.6" x2="676.71" y2="438.6"/><line class="cls-4" x1="686.67" y1="360.61" x2="691.54" y2="360.61"/><line class="cls-4" x1="700.67" y1="471.75" x2="702.04" y2="575.27"/><line class="cls-4" x1="676.84" y1="382.54" x2="676.84" y2="425.62"/><line class="cls-4" x1="688.24" y1="293.44" x2="689.08" y2="324.98"/><line class="cls-4" x1="654.44" y1="721.39" x2="664.01" y2="721.39"/><line class="cls-4" x1="654.44" y1="727.61" x2="659.22" y2="727.61"/><line class="cls-4" x1="667.36" y1="721.39" x2="687.45" y2="721.39"/><polygon class="cls-3" points="685.63 232.3 685.62 232.35 683.7 233.03 683.56 202.58 685.41 202.56 685.63 232.3"/></svg>